<svg width="1512" height="668" viewBox="0 0 1512 668" fill="none" xmlns="http://www.w3.org/2000/svg">
<path d="M606.062 479.12C603.182 479.12 600.648 478.64 598.462 477.68C596.275 476.72 594.435 475.387 592.942 473.68C591.448 471.92 590.328 469.84 589.582 467.44C588.835 465.04 588.462 462.4 588.462 459.52C588.462 456.16 588.968 453.307 589.982 450.96C591.048 448.56 592.408 446.587 594.062 445.04C595.768 443.493 597.688 442.373 599.822 441.68C602.008 440.933 604.222 440.56 606.462 440.56C608.862 440.56 610.915 440.96 612.622 441.76C614.382 442.507 616.088 443.893 617.742 445.92C618.062 444.8 618.568 443.92 619.262 443.28C619.955 442.64 620.755 442.187 621.662 441.92C622.568 441.653 623.528 441.493 624.542 441.44C625.555 441.387 626.542 441.36 627.502 441.36V443.76C626.808 443.76 626.222 443.92 625.742 444.24C625.315 444.507 624.968 445.28 624.702 446.56C624.488 447.787 624.328 449.653 624.222 452.16C624.168 454.613 624.142 458.027 624.142 462.4V490.08C624.142 491.147 624.302 492.027 624.622 492.72C624.995 493.413 625.422 493.973 625.902 494.4C626.435 494.827 627.022 495.12 627.662 495.28C628.355 495.493 629.022 495.6 629.662 495.6V498C629.022 498 628.302 497.947 627.502 497.84C626.755 497.787 625.955 497.707 625.102 497.6C624.248 497.493 623.422 497.387 622.622 497.28C621.875 497.227 621.182 497.2 620.542 497.2C619.902 497.2 619.182 497.227 618.382 497.28C617.635 497.387 616.835 497.493 615.982 497.6C615.128 497.707 614.302 497.787 613.502 497.84C612.755 497.947 612.062 498 611.422 498V495.6C612.862 495.6 614.142 495.2 615.262 494.4C616.382 493.6 616.942 492.16 616.942 490.08V475.12C615.182 476.72 613.342 477.787 611.422 478.32C609.555 478.853 607.768 479.12 606.062 479.12ZM606.462 475.44C608.275 475.44 609.875 475.04 611.262 474.24C612.648 473.387 613.768 472.24 614.622 470.8C615.528 469.36 616.195 467.707 616.622 465.84C617.102 463.92 617.342 461.867 617.342 459.68C617.342 457.6 617.128 455.653 616.702 453.84C616.275 451.973 615.608 450.347 614.702 448.96C613.795 447.52 612.648 446.4 611.262 445.6C609.928 444.8 608.302 444.4 606.382 444.4C604.462 444.4 602.835 444.8 601.502 445.6C600.168 446.347 599.102 447.413 598.302 448.8C597.502 450.133 596.915 451.733 596.542 453.6C596.222 455.413 596.062 457.387 596.062 459.52C596.062 461.6 596.222 463.6 596.542 465.52C596.862 467.44 597.422 469.147 598.222 470.64C599.022 472.08 600.088 473.253 601.422 474.16C602.755 475.013 604.435 475.44 606.462 475.44ZM663.517 457.12C663.517 455.147 663.464 453.52 663.357 452.24C663.304 450.907 663.091 449.893 662.717 449.2C662.344 448.453 661.811 447.947 661.117 447.68C660.424 447.36 659.464 447.2 658.237 447.2V444.8C659.571 444.8 660.691 444.72 661.597 444.56C662.557 444.4 663.411 444.16 664.157 443.84C664.904 443.52 665.597 443.147 666.237 442.72C666.877 442.293 667.571 441.84 668.317 441.36H670.717V469.76C670.717 470.827 670.877 471.707 671.197 472.4C671.571 473.093 671.997 473.653 672.477 474.08C673.011 474.507 673.597 474.827 674.237 475.04C674.931 475.2 675.597 475.28 676.237 475.28V478.08C675.011 477.92 673.944 477.787 673.037 477.68C672.184 477.52 671.091 477.44 669.757 477.44C667.944 477.44 666.131 477.627 664.317 478L663.517 477.2V472.72C662.931 473.627 662.317 474.48 661.677 475.28C661.091 476.027 660.371 476.693 659.517 477.28C658.664 477.813 657.677 478.24 656.557 478.56C655.437 478.933 654.104 479.12 652.557 479.12C647.224 479.12 643.411 477.493 641.117 474.24C638.824 470.933 637.624 466.16 637.517 459.92C637.464 457.04 637.384 454.773 637.277 453.12C637.224 451.413 637.037 450.133 636.717 449.28C636.397 448.373 635.891 447.813 635.197 447.6C634.504 447.333 633.517 447.2 632.237 447.2V444.8C633.571 444.8 634.691 444.72 635.597 444.56C636.557 444.4 637.411 444.16 638.157 443.84C638.904 443.52 639.597 443.147 640.237 442.72C640.877 442.293 641.571 441.84 642.317 441.36H644.717V458.24C644.717 461.493 644.931 464.213 645.357 466.4C645.784 468.587 646.371 470.347 647.117 471.68C647.917 473.013 648.851 473.973 649.917 474.56C650.984 475.093 652.157 475.36 653.437 475.36C654.931 475.36 656.291 474.987 657.517 474.24C658.797 473.44 659.864 472.347 660.717 470.96C661.624 469.573 662.317 467.947 662.797 466.08C663.277 464.16 663.517 462.107 663.517 459.92V457.12ZM684.388 428.72C684.388 427.12 684.948 425.787 686.068 424.72C687.188 423.6 688.522 423.04 690.068 423.04C691.615 423.04 692.922 423.6 693.988 424.72C695.108 425.787 695.668 427.12 695.668 428.72C695.668 430.32 695.108 431.68 693.988 432.8C692.922 433.867 691.615 434.4 690.068 434.4C688.522 434.4 687.188 433.867 686.068 432.8C684.948 431.68 684.388 430.32 684.388 428.72ZM693.428 470.08C693.428 471.147 693.588 472.027 693.908 472.72C694.282 473.413 694.708 473.973 695.188 474.4C695.722 474.827 696.308 475.147 696.948 475.36C697.642 475.52 698.308 475.6 698.948 475.6V478C698.308 478 697.588 477.973 696.788 477.92C696.042 477.813 695.242 477.707 694.388 477.6C693.535 477.493 692.708 477.413 691.908 477.36C691.162 477.253 690.468 477.2 689.828 477.2C689.188 477.2 688.468 477.253 687.668 477.36C686.922 477.413 686.122 477.493 685.268 477.6C684.415 477.707 683.588 477.813 682.788 477.92C682.042 477.973 681.348 478 680.708 478V475.6C682.148 475.6 683.428 475.2 684.548 474.4C685.668 473.6 686.228 472.16 686.228 470.08V456.32C686.228 454.347 686.175 452.72 686.068 451.44C686.015 450.107 685.802 449.093 685.428 448.4C685.055 447.653 684.522 447.147 683.828 446.88C683.135 446.56 682.175 446.4 680.948 446.4V444C682.282 444 683.402 443.92 684.308 443.76C685.268 443.6 686.122 443.36 686.868 443.04C687.615 442.72 688.308 442.347 688.948 441.92C689.588 441.493 690.282 441.04 691.028 440.56H693.428V470.08ZM740.165 468.32C740.165 473.227 740.645 476.933 741.605 479.44C742.565 482 744.538 483.28 747.525 483.28C747.898 483.28 748.325 483.253 748.805 483.2C749.338 483.147 749.738 483.067 750.005 482.96L750.245 483.36C749.551 484.48 748.591 485.227 747.365 485.6C746.191 485.973 745.071 486.16 744.005 486.16C741.925 486.16 740.298 485.707 739.125 484.8C738.005 483.893 737.445 482.773 737.445 481.44C735.898 481.44 734.805 480.88 734.165 479.76C733.525 478.64 733.151 476.96 733.045 474.72C731.231 476.48 729.338 477.653 727.365 478.24C725.445 478.827 723.578 479.12 721.765 479.12C718.885 479.12 716.351 478.64 714.165 477.68C711.978 476.72 710.138 475.387 708.645 473.68C707.151 471.92 706.031 469.84 705.285 467.44C704.538 465.04 704.165 462.4 704.165 459.52C704.165 456.16 704.671 453.307 705.685 450.96C706.751 448.56 708.111 446.587 709.765 445.04C711.471 443.493 713.391 442.373 715.525 441.68C717.711 440.933 719.925 440.56 722.165 440.56C724.405 440.56 726.378 440.907 728.085 441.6C729.791 442.293 731.418 443.52 732.965 445.28V429.04C732.965 427.067 732.911 425.44 732.805 424.16C732.751 422.827 732.538 421.813 732.165 421.12C731.791 420.373 731.258 419.867 730.565 419.6C729.871 419.28 728.911 419.12 727.685 419.12V416.72C729.018 416.72 730.138 416.64 731.045 416.48C732.005 416.32 732.858 416.08 733.605 415.76C734.351 415.44 735.045 415.067 735.685 414.64C736.325 414.213 737.018 413.76 737.765 413.28H740.165V468.32ZM722.165 475.44C723.978 475.44 725.578 475.04 726.965 474.24C728.351 473.387 729.471 472.24 730.325 470.8C731.231 469.36 731.898 467.707 732.325 465.84C732.805 463.92 733.045 461.867 733.045 459.68C733.045 457.6 732.831 455.653 732.405 453.84C731.978 451.973 731.311 450.347 730.405 448.96C729.498 447.52 728.351 446.4 726.965 445.6C725.631 444.8 724.005 444.4 722.085 444.4C720.165 444.4 718.538 444.8 717.205 445.6C715.871 446.347 714.805 447.413 714.005 448.8C713.205 450.133 712.618 451.733 712.245 453.6C711.925 455.413 711.765 457.387 711.765 459.52C711.765 461.6 711.925 463.6 712.245 465.52C712.565 467.44 713.125 469.147 713.925 470.64C714.725 472.08 715.791 473.253 717.125 474.16C718.458 475.013 720.138 475.44 722.165 475.44ZM761.068 470.08C761.068 471.147 761.228 472.027 761.548 472.72C761.921 473.413 762.348 473.973 762.828 474.4C763.361 474.827 763.948 475.147 764.588 475.36C765.281 475.52 765.948 475.6 766.588 475.6V478C765.948 478 765.228 477.973 764.428 477.92C763.681 477.813 762.881 477.707 762.028 477.6C761.174 477.493 760.348 477.413 759.548 477.36C758.801 477.253 758.108 477.2 757.468 477.2C756.828 477.2 756.108 477.253 755.308 477.36C754.561 477.413 753.761 477.493 752.908 477.6C752.054 477.707 751.228 477.813 750.428 477.92C749.681 477.973 748.988 478 748.348 478V475.6C749.788 475.6 751.068 475.2 752.188 474.4C753.308 473.6 753.868 472.16 753.868 470.08V428.64C753.868 426.667 753.814 425.04 753.708 423.76C753.654 422.427 753.441 421.413 753.068 420.72C752.694 419.973 752.161 419.467 751.468 419.2C750.774 418.88 749.814 418.72 748.588 418.72V416.72C749.921 416.72 751.068 416.64 752.028 416.48C753.041 416.32 753.948 416.08 754.748 415.76C755.548 415.44 756.268 415.067 756.908 414.64C757.601 414.213 758.321 413.76 759.068 413.28H761.068V446.96C761.601 446.107 762.241 445.307 762.988 444.56C763.734 443.76 764.614 443.067 765.628 442.48C766.641 441.893 767.814 441.44 769.148 441.12C770.481 440.747 772.028 440.56 773.788 440.56C776.028 440.56 778.028 440.907 779.788 441.6C781.548 442.293 783.014 443.413 784.188 444.96C785.414 446.453 786.321 448.427 786.908 450.88C787.548 453.28 787.868 456.213 787.868 459.68V469.2C787.868 472.613 787.974 475.36 788.188 477.44C788.454 479.52 788.774 481.12 789.148 482.24C789.574 483.36 790.054 484.107 790.588 484.48C791.174 484.853 791.761 485.04 792.348 485.04C792.934 485.04 793.468 484.987 793.948 484.88C794.428 484.827 794.961 484.587 795.548 484.16L795.948 484.48C795.361 485.92 794.481 487.067 793.308 487.92C792.134 488.827 790.854 489.28 789.468 489.28C788.081 489.28 786.854 488.853 785.788 488C784.721 487.147 784.188 486 784.188 484.56C783.494 484.187 782.908 483.787 782.428 483.36C782.001 482.987 781.654 482.427 781.388 481.68C781.121 480.933 780.934 479.92 780.828 478.64C780.721 477.413 780.668 475.76 780.668 473.68V461.44C780.668 458.08 780.481 455.307 780.108 453.12C779.734 450.933 779.201 449.2 778.508 447.92C777.814 446.587 776.961 445.653 775.948 445.12C774.988 444.587 773.921 444.32 772.748 444.32C771.521 444.32 770.214 444.587 768.828 445.12C767.441 445.6 766.161 446.427 764.988 447.6C763.868 448.72 762.934 450.213 762.188 452.08C761.441 453.893 761.068 456.107 761.068 458.72V470.08ZM815.065 475.52C815.865 475.52 816.665 475.44 817.465 475.28C818.265 475.067 819.011 474.72 819.705 474.24C820.451 473.707 821.118 472.987 821.705 472.08C822.345 471.12 822.905 469.867 823.385 468.32C824.611 468.32 825.625 468.613 826.425 469.2C827.225 469.787 827.625 470.693 827.625 471.92C827.625 473.04 827.251 474.053 826.505 474.96C825.811 475.867 824.851 476.64 823.625 477.28C822.451 477.867 821.065 478.32 819.465 478.64C817.918 478.96 816.291 479.12 814.585 479.12C811.651 479.12 809.065 478.667 806.825 477.76C804.585 476.8 802.718 475.493 801.225 473.84C799.731 472.133 798.585 470.08 797.785 467.68C797.038 465.28 796.665 462.64 796.665 459.76C796.665 453.787 798.238 449.093 801.385 445.68C804.531 442.267 809.011 440.56 814.825 440.56C815.518 440.56 816.211 440.587 816.905 440.64C817.598 440.693 818.238 440.827 818.825 441.04C819.411 441.2 819.891 441.467 820.265 441.84C820.638 442.16 820.825 442.587 820.825 443.12C821.625 443.12 822.425 443.28 823.225 443.6C824.078 443.92 824.851 444.4 825.545 445.04C826.291 445.68 826.878 446.507 827.305 447.52C827.785 448.48 828.025 449.653 828.025 451.04C828.025 453.013 827.545 454.64 826.585 455.92C825.625 457.2 824.398 458.24 822.905 459.04C821.465 459.787 819.865 460.32 818.105 460.64C816.398 460.907 814.771 461.04 813.225 461.04C811.465 461.04 809.811 460.907 808.265 460.64C806.771 460.373 805.491 460.053 804.425 459.68V460C804.425 462.24 804.611 464.32 804.985 466.24C805.358 468.16 805.945 469.813 806.745 471.2C807.598 472.533 808.691 473.6 810.025 474.4C811.411 475.147 813.091 475.52 815.065 475.52ZM814.185 444.32C811.305 444.32 809.091 445.36 807.545 447.44C805.998 449.52 805.011 452.4 804.585 456.08C805.491 456.667 806.718 457.067 808.265 457.28C809.865 457.44 811.385 457.52 812.825 457.52C815.705 457.52 817.705 457.067 818.825 456.16C819.998 455.253 820.585 453.68 820.585 451.44C820.585 448.773 819.971 446.933 818.745 445.92C817.518 444.853 815.998 444.32 814.185 444.32ZM865.272 470.08C865.272 471.147 865.432 472.027 865.752 472.72C866.125 473.413 866.552 473.973 867.032 474.4C867.565 474.827 868.152 475.147 868.792 475.36C869.485 475.52 870.152 475.6 870.792 475.6V478C869.565 478 868.498 477.893 867.592 477.68C866.738 477.467 865.698 477.36 864.472 477.36C863.245 477.36 862.178 477.387 861.272 477.44C860.365 477.493 859.298 477.68 858.072 478V473.76C856.845 475.147 855.378 476.4 853.672 477.52C851.965 478.587 849.885 479.12 847.432 479.12C845.458 479.12 843.645 478.853 841.992 478.32C840.392 477.787 839.005 477.013 837.832 476C836.712 474.987 835.832 473.787 835.192 472.4C834.552 470.96 834.232 469.36 834.232 467.6C834.232 465.893 834.552 464.373 835.192 463.04C835.885 461.653 836.845 460.507 838.072 459.6C839.298 458.64 840.738 457.92 842.392 457.44C844.045 456.907 845.885 456.64 847.912 456.64C850.205 456.64 852.152 456.88 853.752 457.36C855.405 457.787 856.845 458.293 858.072 458.88V455.92C858.072 454.533 857.965 453.147 857.752 451.76C857.592 450.373 857.245 449.12 856.712 448C856.178 446.88 855.405 445.973 854.392 445.28C853.378 444.587 852.072 444.24 850.472 444.24C849.778 444.24 849.005 444.32 848.152 444.48C847.352 444.64 846.605 444.933 845.912 445.36C845.218 445.733 844.632 446.267 844.152 446.96C843.672 447.6 843.432 448.427 843.432 449.44C843.432 449.973 843.512 450.587 843.672 451.28C842.872 451.707 841.992 451.92 841.032 451.92C839.538 451.92 838.445 451.52 837.752 450.72C837.058 449.867 836.712 448.907 836.712 447.84C836.712 446.773 837.058 445.84 837.752 445.04C838.498 444.187 839.538 443.76 840.872 443.76C840.872 443.173 841.138 442.667 841.672 442.24C842.205 441.813 842.898 441.493 843.752 441.28C844.658 441.013 845.645 440.827 846.712 440.72C847.778 440.613 848.872 440.56 849.992 440.56C852.392 440.56 854.525 440.853 856.392 441.44C858.312 441.973 859.912 442.933 861.192 444.32C862.525 445.653 863.538 447.467 864.232 449.76C864.925 452 865.272 454.853 865.272 458.32V470.08ZM849.672 475.44C851.538 475.44 853.165 474.907 854.552 473.84C855.938 472.72 857.112 471.387 858.072 469.84V461.84C856.845 461.253 855.485 460.773 853.992 460.4C852.498 459.973 851.005 459.76 849.512 459.76C847.378 459.76 845.538 460.4 843.992 461.68C842.498 462.96 841.752 464.773 841.752 467.12C841.752 469.573 842.472 471.573 843.912 473.12C845.352 474.667 847.272 475.44 849.672 475.44ZM887.022 470.08C887.022 471.147 887.182 472.027 887.502 472.72C887.876 473.413 888.302 473.973 888.782 474.4C889.316 474.827 889.902 475.147 890.542 475.36C891.236 475.52 891.902 475.6 892.542 475.6V478C891.902 478 891.182 477.973 890.382 477.92C889.636 477.813 888.836 477.707 887.982 477.6C887.129 477.493 886.302 477.413 885.502 477.36C884.756 477.253 884.062 477.2 883.422 477.2C882.782 477.2 882.062 477.253 881.262 477.36C880.516 477.413 879.716 477.493 878.862 477.6C878.009 477.707 877.182 477.813 876.382 477.92C875.636 477.973 874.942 478 874.302 478V475.6C875.742 475.6 877.022 475.2 878.142 474.4C879.262 473.6 879.822 472.16 879.822 470.08V456.72C879.822 454.747 879.769 453.12 879.662 451.84C879.609 450.507 879.396 449.493 879.022 448.8C878.649 448.053 878.116 447.547 877.422 447.28C876.729 446.96 875.769 446.8 874.542 446.8V444.8C875.876 444.8 877.022 444.72 877.982 444.56C878.996 444.4 879.902 444.16 880.702 443.84C881.502 443.52 882.222 443.147 882.862 442.72C883.556 442.293 884.276 441.84 885.022 441.36H887.022V449.68C888.302 446.533 889.822 444.24 891.582 442.8C893.396 441.307 895.236 440.56 897.102 440.56C898.276 440.56 899.342 440.747 900.302 441.12C901.262 441.493 901.742 442.133 901.742 443.04C902.809 443.04 903.636 443.387 904.222 444.08C904.862 444.773 905.182 445.733 905.182 446.96C905.182 448.347 904.702 449.573 903.742 450.64C902.782 451.653 901.182 452.373 898.942 452.8C899.156 452 899.262 451.2 899.262 450.4C899.262 448.48 898.809 447.067 897.902 446.16C897.049 445.253 896.089 444.8 895.022 444.8C894.169 444.8 893.262 445.253 892.302 446.16C891.396 447.013 890.542 448.213 889.742 449.76C888.942 451.307 888.276 453.12 887.742 455.2C887.262 457.227 887.022 459.44 887.022 461.84V470.08ZM920.687 469.28C920.687 472.053 920.82 474.293 921.087 476C921.407 477.707 921.807 479.013 922.287 479.92C922.767 480.88 923.3 481.52 923.887 481.84C924.527 482.16 925.167 482.32 925.807 482.32C926.553 482.32 927.167 482.24 927.647 482.08C928.18 481.92 928.66 481.707 929.087 481.44L929.887 482.16C929.3 483.547 928.5 484.56 927.487 485.2C926.527 485.893 925.433 486.24 924.207 486.24C922.66 486.24 921.353 485.92 920.287 485.28C919.273 484.64 918.767 483.787 918.767 482.72C916.58 482.72 915.14 481.787 914.447 479.92C913.807 478.053 913.487 475.307 913.487 471.68V445.12H908.207V441.36H908.687C910.127 441.36 911.353 441.04 912.367 440.4C913.433 439.707 914.34 438.827 915.087 437.76C915.887 436.693 916.553 435.493 917.087 434.16C917.673 432.773 918.207 431.387 918.687 430H920.687V441.36C922.607 441.307 924.18 441.173 925.407 440.96C926.687 440.693 927.62 440.267 928.207 439.68C929.433 439.893 930.233 440.347 930.607 441.04C930.98 441.68 931.167 442.24 931.167 442.72C931.167 443.36 930.953 443.92 930.527 444.4C930.153 444.827 929.62 445.173 928.927 445.44C928.287 445.707 927.54 445.893 926.687 446C925.833 446.107 924.98 446.16 924.127 446.16C922.953 446.16 921.807 446.08 920.687 445.92V469.28ZM982.423 457.12C982.423 455.147 982.37 453.52 982.263 452.24C982.21 450.907 981.997 449.893 981.623 449.2C981.25 448.453 980.717 447.947 980.023 447.68C979.33 447.36 978.37 447.2 977.143 447.2V444.8C978.477 444.8 979.597 444.72 980.503 444.56C981.463 444.4 982.317 444.16 983.063 443.84C983.81 443.52 984.503 443.147 985.143 442.72C985.783 442.293 986.477 441.84 987.223 441.36H989.623V469.76C989.623 470.827 989.783 471.707 990.103 472.4C990.477 473.093 990.903 473.653 991.383 474.08C991.917 474.507 992.503 474.827 993.143 475.04C993.837 475.2 994.503 475.28 995.143 475.28V478.08C993.917 477.92 992.85 477.787 991.943 477.68C991.09 477.52 989.997 477.44 988.663 477.44C986.85 477.44 985.037 477.627 983.223 478L982.423 477.2V472.72C981.837 473.627 981.223 474.48 980.583 475.28C979.997 476.027 979.277 476.693 978.423 477.28C977.57 477.813 976.583 478.24 975.463 478.56C974.343 478.933 973.01 479.12 971.463 479.12C966.13 479.12 962.317 477.493 960.023 474.24C957.73 470.933 956.53 466.16 956.423 459.92C956.37 457.04 956.29 454.773 956.183 453.12C956.13 451.413 955.943 450.133 955.623 449.28C955.303 448.373 954.797 447.813 954.103 447.6C953.41 447.333 952.423 447.2 951.143 447.2V444.8C952.477 444.8 953.597 444.72 954.503 444.56C955.463 444.4 956.317 444.16 957.063 443.84C957.81 443.52 958.503 443.147 959.143 442.72C959.783 442.293 960.477 441.84 961.223 441.36H963.623V458.24C963.623 461.493 963.837 464.213 964.263 466.4C964.69 468.587 965.277 470.347 966.023 471.68C966.823 473.013 967.757 473.973 968.823 474.56C969.89 475.093 971.063 475.36 972.343 475.36C973.837 475.36 975.197 474.987 976.423 474.24C977.703 473.44 978.77 472.347 979.623 470.96C980.53 469.573 981.223 467.947 981.703 466.08C982.183 464.16 982.423 462.107 982.423 459.92V457.12ZM999.215 443.68C999.748 442.613 1000.57 441.84 1001.69 441.36C1002.81 440.827 1003.99 440.56 1005.21 440.56C1007.61 440.56 1008.81 441.44 1008.81 443.2C1010.2 443.2 1011.27 443.547 1012.01 444.24C1012.81 444.88 1013.61 445.947 1014.41 447.44L1017.85 453.92L1021.05 447.12C1022.17 444.72 1023.4 443.04 1024.73 442.08C1026.07 441.067 1027.64 440.56 1029.45 440.56C1029.99 440.56 1030.55 440.613 1031.13 440.72C1031.77 440.827 1032.36 441.013 1032.89 441.28C1033.48 441.493 1033.96 441.84 1034.33 442.32C1034.71 442.747 1034.89 443.307 1034.89 444C1034.89 444.267 1034.87 444.587 1034.81 444.96C1034.81 445.333 1034.73 445.733 1034.57 446.16C1034.2 445.52 1033.59 444.96 1032.73 444.48C1031.88 444 1030.95 443.76 1029.93 443.76C1028.71 443.76 1027.75 444.187 1027.05 445.04C1026.36 445.84 1025.69 446.933 1025.05 448.32L1020.33 458.4L1023.53 464.32C1024.81 466.667 1025.93 468.64 1026.89 470.24C1027.91 471.787 1028.87 473.013 1029.77 473.92C1030.73 474.827 1031.67 475.467 1032.57 475.84C1033.53 476.213 1034.6 476.4 1035.77 476.4C1035.19 477.52 1034.6 478.32 1034.01 478.8C1033.48 479.333 1032.52 479.6 1031.13 479.6C1030.65 479.6 1030.12 479.547 1029.53 479.44C1028.95 479.387 1028.39 479.253 1027.85 479.04C1027.37 478.88 1026.97 478.613 1026.65 478.24C1026.33 477.867 1026.17 477.387 1026.17 476.8C1025.32 476.8 1024.57 476.747 1023.93 476.64C1023.29 476.533 1022.68 476.293 1022.09 475.92C1021.56 475.493 1021 474.907 1020.41 474.16C1019.88 473.413 1019.27 472.4 1018.57 471.12L1015.53 465.92L1012.01 472.56C1010.79 474.907 1009.53 476.587 1008.25 477.6C1006.97 478.613 1005.43 479.12 1003.61 479.12C1003.08 479.12 1002.49 479.067 1001.85 478.96C1001.27 478.853 1000.68 478.64 1000.09 478.32C999.561 478.053 999.108 477.68 998.735 477.2C998.361 476.667 998.175 475.973 998.175 475.12C998.175 474.693 998.281 474.16 998.495 473.52C998.868 474.16 999.401 474.72 1000.09 475.2C1000.79 475.68 1001.61 475.92 1002.57 475.92C1003.85 475.92 1004.89 475.493 1005.69 474.64C1006.49 473.787 1007.27 472.693 1008.01 471.36L1013.13 461.76L1010.09 456.4C1009.45 455.333 1008.71 454.08 1007.85 452.64C1007.05 451.147 1006.17 449.76 1005.21 448.48C1004.25 447.147 1003.27 446.027 1002.25 445.12C1001.24 444.16 1000.23 443.68 999.215 443.68Z" fill="black"/>
<g filter="url(#filter0_i_305_4987)">
<path d="M577.191 355.82C577.191 361.02 576.324 365.613 574.591 369.6C572.858 373.413 570.518 376.62 567.571 379.22C564.798 381.82 561.504 383.813 557.691 385.2C554.051 386.413 550.238 387.02 546.251 387.02L545.211 384.68C546.424 383.813 547.898 381.733 549.631 378.44C551.538 375.147 552.491 370.033 552.491 363.1C552.491 352.007 549.458 343.687 543.391 338.14C537.324 332.593 527.791 329.82 514.791 329.82C512.018 329.82 508.118 330.08 503.091 330.6C498.238 331.12 493.298 332.507 488.271 334.76C483.418 337.013 479.171 340.393 475.531 344.9C471.891 349.233 470.071 355.387 470.071 363.36C470.071 370.64 471.631 376.793 474.751 381.82C478.044 386.847 482.291 391.267 487.491 395.08C492.691 398.893 498.584 402.273 505.171 405.22C511.931 408.167 518.778 411.113 525.711 414.06C532.818 417.007 539.664 420.213 546.251 423.68C553.011 426.973 558.991 430.96 564.191 435.64C569.391 440.32 573.551 445.953 576.671 452.54C579.964 458.953 581.611 466.667 581.611 475.68C581.611 485.387 579.791 493.88 576.151 501.16C572.511 508.267 567.398 514.247 560.811 519.1C554.398 523.78 546.598 527.247 537.411 529.5C528.398 531.927 518.431 533.14 507.511 533.14C505.604 533.14 502.831 533.053 499.191 532.88C495.551 532.707 491.911 532.273 488.271 531.58C484.631 531.06 481.424 530.193 478.651 528.98C476.051 527.767 474.751 526.033 474.751 523.78C469.724 523.78 465.218 522.913 461.231 521.18C457.244 519.273 453.778 516.76 450.831 513.64C447.884 510.52 445.631 506.88 444.071 502.72C442.511 498.387 441.731 493.707 441.731 488.68C441.731 482.96 442.684 478.193 444.591 474.38C446.498 470.393 448.924 467.187 451.871 464.76C454.818 462.16 458.111 460.253 461.751 459.04C465.391 457.827 468.944 457.047 472.411 456.7L473.451 458C472.411 459.387 471.544 461.033 470.851 462.94C470.331 464.847 469.898 466.753 469.551 468.66C469.204 470.567 468.944 472.473 468.771 474.38C468.771 476.113 468.771 477.587 468.771 478.8C468.771 486.947 469.984 493.707 472.411 499.08C475.011 504.28 478.218 508.44 482.031 511.56C485.844 514.68 490.004 516.933 494.511 518.32C499.191 519.533 503.611 520.14 507.771 520.14C510.544 520.14 514.531 519.793 519.731 519.1C525.104 518.233 530.391 516.5 535.591 513.9C540.791 511.3 545.298 507.573 549.111 502.72C553.098 497.693 555.091 491.02 555.091 482.7C555.091 472.993 552.404 465.193 547.031 459.3C541.831 453.233 535.244 448.12 527.271 443.96C519.298 439.627 510.631 435.727 501.271 432.26C491.911 428.62 483.244 424.287 475.271 419.26C467.298 414.233 460.624 407.993 455.251 400.54C450.051 393.087 447.451 383.38 447.451 371.42C447.451 359.807 449.878 350.36 454.731 343.08C459.758 335.8 465.911 330.253 473.191 326.44C480.471 322.453 488.184 319.767 496.331 318.38C504.651 316.993 512.191 316.3 518.951 316.3C536.111 316.3 544.691 319.767 544.691 326.7C548.331 326.7 552.058 327.133 555.871 328C559.858 328.867 563.411 330.427 566.531 332.68C569.651 334.76 572.164 337.707 574.071 341.52C576.151 345.16 577.191 349.927 577.191 355.82Z" fill="black" fill-opacity="0.9"/>
</g>
<rect x="464.323" y="391.026" width="20.5502" height="20.5502" rx="10.2751" stroke="white" stroke-width="2"/>
<rect x="505.087" y="412.709" width="20.5502" height="20.5502" rx="10.2751" stroke="white" stroke-width="2"/>
<rect x="544.116" y="434.392" width="20.5502" height="20.5502" rx="10.2751" stroke="white" stroke-width="2"/>
<rect x="467.792" y="394.495" width="13.6117" height="13.6117" rx="6.80583" stroke="white" stroke-width="2"/>
<rect x="508.556" y="416.178" width="13.6117" height="13.6117" rx="6.80583" stroke="white" stroke-width="2"/>
<rect x="547.585" y="437.861" width="13.6117" height="13.6117" rx="6.80583" stroke="white" stroke-width="2"/>
<path d="M499.745 359.579L501.071 369.751L506.494 359.166C507.44 357.318 508.011 355.299 508.172 353.228C508.43 349.907 507.626 346.589 505.877 343.758L505.527 343.191L504.794 343.968C502.391 346.516 500.733 349.679 500.003 353.111C499.551 355.236 499.464 357.424 499.745 359.579Z" fill="#3BD737"/>
<path d="M501.071 369.751L499.745 359.579C499.464 357.424 499.551 355.236 500.003 353.111V353.111C500.733 349.679 502.391 346.516 504.794 343.968L505.527 343.191M501.071 369.751L506.494 359.166C507.44 357.318 508.011 355.299 508.172 353.228V353.228C508.43 349.907 507.626 346.589 505.877 343.758L505.527 343.191M501.071 369.751L505.527 343.191" stroke="#198B4B" stroke-width="1.5"/>
<path d="M515.645 353.534L519.153 361.532L521.063 351.588C521.396 349.852 521.381 348.066 521.019 346.334C520.439 343.558 518.991 341.039 516.886 339.142L516.465 338.762L516.051 339.571C514.694 342.227 514.094 345.207 514.315 348.186C514.452 350.031 514.902 351.839 515.645 353.534Z" fill="#3BD737"/>
<path d="M519.153 361.532L515.645 353.534C514.902 351.839 514.452 350.031 514.315 348.186V348.186C514.094 345.207 514.694 342.227 516.051 339.571L516.465 338.762M519.153 361.532L521.063 351.588C521.396 349.852 521.381 348.066 521.019 346.334V346.334C520.439 343.558 518.991 341.039 516.886 339.142L516.465 338.762M519.153 361.532L516.465 338.762" stroke="#198B4B" stroke-width="1.5"/>
<path d="M505.255 503.341L507.749 494.971L499.864 501.323C498.487 502.432 497.344 503.804 496.501 505.359C495.149 507.852 494.625 510.711 495.004 513.519L495.08 514.081L495.919 513.731C498.671 512.582 501.056 510.696 502.813 508.281C503.901 506.785 504.727 505.114 505.255 503.341Z" fill="#3BD737"/>
<path d="M507.749 494.971L505.255 503.341C504.727 505.114 503.901 506.785 502.813 508.281V508.281C501.056 510.696 498.671 512.582 495.919 513.731L495.08 514.081M507.749 494.971L499.864 501.323C498.487 502.432 497.344 503.804 496.501 505.359V505.359C495.149 507.852 494.625 510.711 495.004 513.519L495.08 514.081M507.749 494.971L495.08 514.081" stroke="#198B4B" stroke-width="1.5"/>
<path d="M447.275 516.855L441.305 519.507L448.749 520.9C450.049 521.143 451.384 521.126 452.678 520.849C454.752 520.406 456.632 519.314 458.043 517.733L458.326 517.416L457.719 517.11C455.728 516.104 453.497 515.665 451.27 515.841C449.89 515.95 448.539 516.293 447.275 516.855Z" fill="#3BD737"/>
<path d="M441.305 519.507L447.275 516.855C448.539 516.293 449.89 515.95 451.27 515.841V515.841C453.497 515.665 455.728 516.104 457.719 517.11L458.326 517.416M441.305 519.507L448.749 520.9C450.049 521.143 451.384 521.126 452.678 520.849V520.849C454.752 520.406 456.632 519.314 458.043 517.733L458.326 517.416M441.305 519.507L458.326 517.416" stroke="#198B4B"/>
<path d="M544.697 348.624L545.354 355.904L549.513 348.521C550.24 347.232 550.703 345.811 550.876 344.341C551.154 341.983 550.675 339.599 549.509 337.533L549.276 337.12L548.732 337.652C546.949 339.399 545.68 341.604 545.063 344.027C544.681 345.527 544.557 347.082 544.697 348.624Z" fill="#3BD737"/>
<path d="M545.354 355.904L544.697 348.624C544.557 347.082 544.681 345.527 545.063 344.027V344.027C545.68 341.604 546.949 339.399 548.732 337.652L549.276 337.12M545.354 355.904L549.513 348.521C550.24 347.232 550.703 345.811 550.876 344.341V344.341C551.154 341.983 550.675 339.599 549.509 337.533L549.276 337.12M545.354 355.904L549.276 337.12" stroke="#198B4B"/>
<path d="M578.216 373.44L581.218 378.333L575.134 375.635C574.072 375.164 573.114 374.486 572.315 373.641C571.034 372.287 570.217 370.561 569.982 368.713L569.935 368.343L570.527 368.423C572.469 368.687 574.304 369.48 575.828 370.717C576.773 371.482 577.581 372.403 578.216 373.44Z" fill="#3BD737"/>
<path d="M581.218 378.333L578.216 373.44C577.581 372.403 576.773 371.482 575.828 370.717V370.717C574.304 369.48 572.469 368.687 570.527 368.423L569.935 368.343M581.218 378.333L575.134 375.635C574.072 375.164 573.114 374.486 572.315 373.641V373.641C571.034 372.287 570.217 370.561 569.982 368.713L569.935 368.343M581.218 378.333L569.935 368.343" stroke="#198B4B"/>
<path d="M579.38 363.899L582.382 368.792L576.298 366.094C575.236 365.623 574.278 364.946 573.479 364.101C572.198 362.747 571.38 361.02 571.146 359.173L571.099 358.803L571.691 358.883C573.633 359.146 575.467 359.94 576.992 361.176C577.937 361.942 578.744 362.863 579.38 363.899Z" fill="#3BD737"/>
<path d="M582.382 368.792L579.38 363.899C578.744 362.863 577.937 361.942 576.992 361.176V361.176C575.467 359.94 573.633 359.146 571.691 358.883L571.099 358.803M582.382 368.792L576.298 366.094C575.236 365.623 574.278 364.946 573.479 364.101V364.101C572.198 362.747 571.38 361.02 571.146 359.173L571.099 358.803M582.382 368.792L571.099 358.803" stroke="#198B4B"/>
<path d="M560.425 363.248L555.259 365.75L558.547 359.964C559.121 358.954 559.89 358.067 560.81 357.356C562.284 356.216 564.083 355.573 565.945 355.523L566.318 355.513L566.179 356.094C565.725 358.001 564.754 359.747 563.372 361.142C562.516 362.006 561.52 362.718 560.425 363.248Z" fill="#3BD737"/>
<path d="M555.259 365.75L560.425 363.248C561.52 362.718 562.516 362.006 563.372 361.142V361.142C564.754 359.747 565.725 358.001 566.179 356.094L566.318 355.513M555.259 365.75L558.547 359.964C559.121 358.954 559.89 358.067 560.81 357.356V357.356C562.284 356.216 564.083 355.573 565.945 355.523L566.318 355.513M555.259 365.75L566.318 355.513" stroke="#198B4B"/>
<path d="M559.558 372.789L554.391 375.291L557.679 369.504C558.253 368.494 559.023 367.608 559.942 366.896C561.417 365.756 563.216 365.114 565.077 365.063L565.45 365.053L565.312 365.635C564.857 367.541 563.886 369.288 562.504 370.682C561.649 371.546 560.652 372.259 559.558 372.789Z" fill="#3BD737"/>
<path d="M554.391 375.291L559.558 372.789C560.652 372.259 561.649 371.546 562.504 370.682V370.682C563.886 369.288 564.857 367.541 565.312 365.635L565.45 365.053M554.391 375.291L557.679 369.504C558.253 368.494 559.023 367.608 559.942 366.896V366.896C561.417 365.756 563.216 365.114 565.077 365.063L565.45 365.053M554.391 375.291L565.45 365.053" stroke="#198B4B"/>
<path d="M436.642 461.44L429.017 461.008L436.014 466.435C437.235 467.382 438.633 468.078 440.127 468.481C442.521 469.128 445.059 468.997 447.371 468.108L447.834 467.93L447.367 467.286C445.834 465.177 443.748 463.528 441.338 462.521C439.845 461.898 438.257 461.532 436.642 461.44Z" fill="#3BD737"/>
<path d="M429.017 461.008L436.642 461.44C438.257 461.532 439.845 461.898 441.338 462.521V462.521C443.748 463.528 445.834 465.177 447.367 467.286L447.834 467.93M429.017 461.008L436.014 466.435C437.235 467.382 438.633 468.078 440.127 468.481V468.481C442.521 469.128 445.059 468.997 447.371 468.108L447.834 467.93M429.017 461.008L447.834 467.93" stroke="#198B4B"/>
<path d="M450.857 452.574L444.991 449.02L448.255 456.271C448.825 457.537 449.641 458.677 450.656 459.626C452.282 461.148 454.351 462.113 456.56 462.381L457.002 462.435L456.902 461.728C456.575 459.409 455.614 457.223 454.127 455.409C453.206 454.285 452.1 453.327 450.857 452.574Z" fill="#3BD737"/>
<path d="M444.991 449.02L450.857 452.574C452.1 453.327 453.206 454.285 454.127 455.409V455.409C455.614 457.223 456.575 459.409 456.902 461.728L457.002 462.435M444.991 449.02L448.255 456.271C448.825 457.537 449.641 458.677 450.656 459.626V459.626C452.282 461.148 454.351 462.113 456.56 462.381L457.002 462.435M444.991 449.02L457.002 462.435" stroke="#198B4B"/>
<path d="M467.003 450.337L463.849 445.421L463.628 452.19C463.59 453.371 463.787 454.549 464.207 455.655C464.881 457.428 466.101 458.941 467.69 459.974L468.008 460.18L468.196 459.602C468.815 457.706 468.9 455.675 468.442 453.73C468.158 452.526 467.672 451.379 467.003 450.337Z" fill="#3BD737"/>
<path d="M463.849 445.421L467.003 450.337C467.672 451.379 468.158 452.526 468.442 453.73V453.73C468.9 455.675 468.815 457.706 468.196 459.602L468.008 460.18M463.849 445.421L463.628 452.19C463.59 453.371 463.787 454.549 464.207 455.655V455.655C464.881 457.428 466.101 458.941 467.69 459.974L468.008 460.18M463.849 445.421L468.008 460.18" stroke="#198B4B"/>
<path d="M485.868 363.048L487.194 373.22L492.617 362.635C493.563 360.787 494.134 358.769 494.295 356.697C494.554 353.376 493.75 350.058 492 347.227L491.65 346.66L490.917 347.437C488.514 349.985 486.856 353.149 486.126 356.58C485.674 358.706 485.587 360.893 485.868 363.048Z" fill="#3BD737"/>
<path d="M487.194 373.22L485.868 363.048C485.587 360.893 485.674 358.706 486.126 356.58V356.58C486.856 353.149 488.514 349.985 490.917 347.437L491.65 346.66M487.194 373.22L492.617 362.635C493.563 360.787 494.134 358.769 494.295 356.697V356.697C494.554 353.376 493.75 350.058 492 347.227L491.65 346.66M487.194 373.22L491.65 346.66" stroke="#198B4B" stroke-width="1.5"/>
<path d="M529.239 316.738C529.471 315.347 532.926 316.435 536.754 318.743C543.17 322.612 545.739 333.581 552.655 336.46V336.46C559.482 339.301 564.341 343.456 567.147 350.298L567.711 351.672C568.925 354.63 569.271 357.872 568.711 361.019L566.031 376.069C565.066 381.484 558.739 383.991 554.327 380.706L552.789 379.56C549.727 377.28 545.083 379.763 548.32 381.786V381.786M521.867 329.748C521.24 336.014 509.23 339.191 508.866 339.286C508.854 339.289 508.851 339.289 508.84 339.292L495.687 342.665C493.196 343.304 490.766 344.157 488.424 345.215L487.196 345.769C481.483 348.349 475.234 349.514 468.976 349.165L458.256 348.567C455.841 348.432 453.457 349.17 451.54 350.644V350.644C448.327 353.116 446.905 357.269 447.928 361.192L450.058 369.356M470.42 361.721V361.721C470.42 366.551 468.243 371.125 464.493 374.171L455.479 381.496C452.049 384.282 450.058 388.466 450.058 392.885V392.885C450.058 394.578 450.31 396.284 451.124 397.769C452.203 399.736 453.987 402.005 455.951 400.434M488.909 395.663V395.663C490.945 393.119 493.094 396.096 492.704 399.332L492.39 401.944C492.097 404.37 492.398 406.831 493.266 409.115L493.466 409.641C494.215 411.614 494.599 413.706 494.599 415.816V424.905C494.599 427.595 495.841 430.135 497.965 431.786L498.453 432.166C499.667 433.11 501.112 433.172 501.598 431.714V431.714M524.902 413.443C525.421 412.406 527.401 412.772 528.114 412.943C528.287 412.984 528.458 413.03 528.632 413.071V413.071C530.891 413.603 532.875 414.951 534.202 416.855L541.015 426.63C544.798 432.058 547.196 438.328 548 444.895L550.594 466.074L550.849 468.375C551.093 470.568 552.297 473.552 554.391 472.854V472.854M581.711 481.961V481.961C582.542 481.961 583.11 482.8 582.802 483.572L582.621 484.024C582.593 484.094 582.559 484.162 582.521 484.228L578.242 491.502L576.909 493.224C571.253 500.53 562.272 504.461 553.067 503.661L548.349 503.251C548.043 503.224 547.735 503.256 547.441 503.344L546.487 503.63C545.159 504.029 544.738 505.7 545.718 506.68V506.68M537.912 529.23V529.23C538.112 530.03 537.404 530.763 536.597 530.59L533.33 529.89C532.645 529.743 532.028 529.376 531.572 528.844L530.76 527.897C530.046 527.063 529.54 526.07 529.287 525.001L529.131 524.342C528.276 520.735 525.136 518.13 521.433 517.955V517.955H518.398C517.679 517.955 517.097 518.537 517.097 519.256V519.256M507.99 532.699V532.699C507.99 533.332 507.361 533.772 506.767 533.556L503.22 532.266V532.266C500.649 531.078 498.928 528.587 498.726 525.762L498.577 523.669C498.472 522.198 498.026 520.771 497.275 519.502L496.993 519.025C496.245 517.76 495.148 516.738 493.834 516.081L490.554 514.441C489.572 513.95 488.385 514.142 487.608 514.919V514.919M465.491 522.291V522.291C465.117 523.601 463.442 523.976 462.545 522.951L461.959 522.281C461.716 522.003 461.546 521.669 461.466 521.308L461.218 520.192C460.896 518.742 461.066 517.226 461.702 515.884L463.556 511.969C464.234 510.54 465.505 509.48 467.034 509.073V509.073C469.436 508.432 471.087 506.229 471.028 503.744L470.84 495.84C470.747 491.937 473.797 487.93 472.544 484.232C472.431 483.897 472.253 483.57 471.996 483.262C469.828 480.66 469.828 478.492 468.961 478.492M445.977 472.421V472.421C445.224 471.919 444.94 470.95 445.303 470.121L445.666 469.294C446.028 468.466 446.751 467.851 447.626 467.626L454.796 465.78C455.565 465.582 456.316 465.321 457.041 465.001L461.292 463.122C463.397 462.192 465.838 462.455 467.697 463.811L468.931 464.711C469.232 464.93 469.595 465.049 469.967 465.049H470.113C470.486 465.049 470.843 464.9 471.107 464.637L471.599 464.145C472.156 463.588 471.892 462.638 471.129 462.447V462.447" stroke="#005B2A" stroke-width="2"/>
<path d="M534.837 458.363L533.075 468.469L541.403 459.978C542.856 458.496 544.002 456.739 544.772 454.809C546.008 451.715 546.228 448.309 545.4 445.085L545.235 444.44L544.304 444.963C541.251 446.681 538.727 449.207 537.009 452.266C535.945 454.16 535.21 456.222 534.837 458.363Z" fill="#3BD737"/>
<path d="M533.075 468.469L534.837 458.363C535.21 456.222 535.945 454.16 537.009 452.266V452.266C538.727 449.207 541.251 446.681 544.304 444.963L545.235 444.44M533.075 468.469L541.403 459.978C542.856 458.496 544.002 456.739 544.772 454.809V454.809C546.008 451.715 546.228 448.309 545.4 445.085L545.235 444.44M533.075 468.469L545.235 444.44" stroke="#198B4B" stroke-width="1.5"/>
<path d="M548.244 514.128L547.246 519.849L551.961 515.042C552.784 514.203 553.432 513.208 553.868 512.116C554.568 510.365 554.692 508.436 554.224 506.611L554.13 506.246L553.603 506.542C551.875 507.515 550.446 508.945 549.473 510.676C548.871 511.749 548.455 512.916 548.244 514.128Z" fill="#3BD737"/>
<path d="M547.246 519.849L548.244 514.128C548.455 512.916 548.871 511.749 549.473 510.676V510.676C550.446 508.945 551.875 507.515 553.603 506.542L554.13 506.246M547.246 519.849L551.961 515.042C552.784 514.203 553.432 513.208 553.868 512.116V512.116C554.568 510.365 554.692 508.436 554.224 506.611L554.13 506.246M547.246 519.849L554.13 506.246" stroke="#198B4B"/>
<path d="M559.52 513.261L558.522 518.981L563.237 514.175C564.06 513.336 564.708 512.341 565.144 511.249C565.843 509.497 565.968 507.569 565.5 505.744L565.406 505.379L564.879 505.675C563.151 506.647 561.722 508.077 560.749 509.809C560.147 510.881 559.731 512.049 559.52 513.261Z" fill="#3BD737"/>
<path d="M558.522 518.981L559.52 513.261C559.731 512.049 560.147 510.881 560.749 509.809V509.809C561.722 508.077 563.151 506.647 564.879 505.675L565.406 505.379M558.522 518.981L563.237 514.175C564.06 513.336 564.708 512.341 565.144 511.249V511.249C565.843 509.497 565.968 507.569 565.5 505.744L565.406 505.379M558.522 518.981L565.406 505.379" stroke="#198B4B"/>
<path d="M553.698 491.69L549.188 488.032L551.09 494.491C551.422 495.618 551.974 496.669 552.716 497.582C553.905 499.046 555.528 500.094 557.35 500.574L557.715 500.67L557.713 500.065C557.706 498.082 557.152 496.138 556.114 494.445C555.471 493.397 554.654 492.465 553.698 491.69Z" fill="#3BD737"/>
<path d="M549.188 488.032L553.698 491.69C554.654 492.465 555.471 493.397 556.114 494.445V494.445C557.152 496.138 557.706 498.082 557.713 500.065L557.715 500.67M549.188 488.032L551.09 494.491C551.422 495.618 551.974 496.669 552.716 497.582V497.582C553.905 499.046 555.528 500.094 557.35 500.574L557.715 500.67M549.188 488.032L557.715 500.67" stroke="#198B4B"/>
<path d="M544.084 496.122L541.379 492.369L541.494 497.731C541.514 498.667 541.72 499.591 542.1 500.447C542.709 501.82 543.739 502.965 545.039 503.713L545.3 503.863L545.424 503.398C545.832 501.872 545.812 500.262 545.367 498.744C545.091 497.803 544.657 496.917 544.084 496.122Z" fill="#3BD737"/>
<path d="M541.379 492.369L544.084 496.122C544.657 496.917 545.091 497.803 545.367 498.744V498.744C545.812 500.262 545.832 501.872 545.424 503.398L545.3 503.863M541.379 492.369L541.494 497.731C541.514 498.667 541.72 499.591 542.1 500.447V500.447C542.709 501.82 543.739 502.965 545.039 503.713L545.3 503.863M541.379 492.369L545.3 503.863" stroke="#198B4B"/>
<path d="M564.294 488.338L559.881 484.563L561.612 491.07C561.914 492.205 562.439 493.27 563.157 494.203C564.306 495.697 565.902 496.788 567.71 497.315L568.073 497.421L568.086 496.816C568.131 494.834 567.629 492.876 566.636 491.156C566.021 490.091 565.229 489.138 564.294 488.338Z" fill="#3BD737"/>
<path d="M559.881 484.563L564.294 488.338C565.229 489.138 566.021 490.091 566.636 491.156V491.156C567.629 492.876 568.131 494.834 568.086 496.816L568.073 497.421M559.881 484.563L561.612 491.07C561.914 492.205 562.439 493.27 563.157 494.203V494.203C564.306 495.697 565.902 496.788 567.71 497.315L568.073 497.421M559.881 484.563L568.073 497.421" stroke="#198B4B"/>
<ellipse cx="464.26" cy="367.844" rx="5.37613" ry="5.28703" fill="#E89AF4" fill-opacity="0.9"/>
<path d="M481.3 365.317C485.989 366.508 486.157 368.49 484.22 371.708C484.079 372.096 484.005 372.601 483.923 373.154C483.805 373.952 483.672 374.852 483.302 375.653C482.995 376.318 482.597 376.711 482.191 377.112C481.768 377.53 481.337 377.955 480.991 378.705C479.273 382.426 478.098 383.263 474.198 380.705C470.297 378.147 465.595 372.929 467.839 368.067C470.083 363.206 475.642 363.88 481.3 365.317Z" fill="url(#paint0_linear_305_4987)" fill-opacity="0.9"/>
<path d="M481.3 365.317C485.989 366.508 486.157 368.49 484.22 371.708C484.079 372.096 484.005 372.601 483.923 373.154C483.805 373.952 483.672 374.852 483.302 375.653C482.995 376.318 482.597 376.711 482.191 377.112C481.768 377.53 481.337 377.955 480.991 378.705C479.273 382.426 478.098 383.263 474.198 380.705C470.297 378.147 465.595 372.929 467.839 368.067C470.083 363.206 475.642 363.88 481.3 365.317Z" stroke="black"/>
<path d="M465.209 352.217C467.317 347.93 469.326 348.156 472.155 350.656C472.514 350.869 473.002 351.04 473.538 351.227C474.311 351.498 475.182 351.802 475.908 352.316C476.511 352.743 476.824 353.204 477.144 353.675C477.477 354.164 477.817 354.664 478.496 355.144C481.87 357.532 482.473 358.829 479.157 362.088C475.84 365.347 469.714 368.855 465.307 365.737C460.901 362.619 462.665 357.391 465.209 352.217Z" fill="url(#paint1_linear_305_4987)" fill-opacity="0.9"/>
<path d="M465.209 352.217C467.317 347.93 469.326 348.156 472.155 350.656C472.514 350.869 473.002 351.04 473.538 351.227C474.311 351.498 475.182 351.802 475.908 352.316C476.511 352.743 476.824 353.204 477.144 353.675C477.477 354.164 477.817 354.664 478.496 355.144C481.87 357.532 482.473 358.829 479.157 362.088C475.84 365.347 469.714 368.855 465.307 365.737C460.901 362.619 462.665 357.391 465.209 352.217Z" stroke="black"/>
<path d="M448.859 363.191C445.025 360.283 445.663 358.396 448.731 356.186C449.016 355.884 449.286 355.449 449.583 354.971C450.01 354.283 450.493 353.507 451.153 352.914C451.701 352.421 452.225 352.214 452.758 352.002C453.314 351.782 453.881 351.558 454.499 351.003C457.566 348.246 458.981 347.931 461.544 351.792C464.107 355.652 466.343 362.269 462.335 365.87C458.328 369.472 453.487 366.701 448.859 363.191Z" fill="url(#paint2_linear_305_4987)" fill-opacity="0.9"/>
<path d="M448.859 363.191C445.025 360.283 445.663 358.396 448.731 356.186C449.016 355.884 449.286 355.449 449.583 354.971C450.01 354.283 450.493 353.507 451.153 352.914C451.701 352.421 452.225 352.214 452.758 352.002C453.314 351.782 453.881 351.558 454.499 351.003C457.566 348.246 458.981 347.931 461.544 351.792C464.107 355.652 466.343 362.269 462.335 365.87C458.328 369.472 453.487 366.701 448.859 363.191Z" stroke="black"/>
<path d="M455.476 380.781C451.744 383.816 450.014 382.787 448.501 379.356C448.264 379.015 447.892 378.66 447.484 378.27C446.896 377.708 446.233 377.074 445.791 376.31C445.423 375.675 445.333 375.127 445.242 374.568C445.146 373.987 445.049 373.394 444.635 372.678C442.579 369.127 442.579 367.7 446.974 366.095C451.369 364.49 458.425 363.809 461.111 368.448C463.797 373.088 459.98 377.118 455.476 380.781Z" fill="url(#paint3_linear_305_4987)" fill-opacity="0.9"/>
<path d="M455.476 380.781C451.744 383.816 450.014 382.787 448.501 379.356C448.264 379.015 447.892 378.66 447.484 378.27C446.896 377.708 446.233 377.074 445.791 376.31C445.423 375.675 445.333 375.127 445.242 374.568C445.146 373.987 445.049 373.394 444.635 372.678C442.579 369.127 442.579 367.7 446.974 366.095C451.369 364.49 458.425 363.809 461.111 368.448C463.797 373.088 459.98 377.118 455.476 380.781Z" stroke="black"/>
<path d="M472.967 382.932C473.573 387.657 471.763 388.543 468.006 387.961C467.587 387.975 467.083 388.093 466.529 388.223C465.732 388.41 464.832 388.621 463.939 388.579C463.197 388.544 462.678 388.325 462.15 388.102C461.599 387.869 461.038 387.632 460.202 387.593C456.051 387.397 454.826 386.633 455.803 382.123C456.78 377.614 459.975 371.39 465.398 371.645C470.82 371.901 472.235 377.23 472.967 382.932Z" fill="url(#paint4_linear_305_4987)" fill-opacity="0.9"/>
<path d="M472.967 382.932C473.573 387.657 471.763 388.543 468.006 387.961C467.587 387.975 467.083 388.093 466.529 388.223C465.732 388.41 464.832 388.621 463.939 388.579C463.197 388.544 462.678 388.325 462.15 388.102C461.599 387.869 461.038 387.632 460.202 387.593C456.051 387.397 454.826 386.633 455.803 382.123C456.78 377.614 459.975 371.39 465.398 371.645C470.82 371.901 472.235 377.23 472.967 382.932Z" stroke="black"/>
<path d="M952.755 345.446C956.078 351.06 946.087 351.972 947.849 357.477C949.277 361.935 951.701 361.321 946.26 370.586C940.819 379.852 950.185 383.105 940.657 381.945C931.13 380.785 942.377 388.321 936.069 391.371C929.762 394.421 916.456 385.08 910.575 380.544C896.558 369.735 879.082 373.985 877.23 371.998C877.991 367.389 874.124 364.59 877.53 361.691C881.455 358.349 905.361 338.794 916.481 335.452C928.302 331.898 942.295 327.776 952.755 345.446Z" fill="#A3BCFF" fill-opacity="0.6"/>
<path d="M790.777 363.98C788.448 370.217 798.407 368.927 797.592 374.717C796.931 379.406 794.449 379.333 801.329 387.239C808.21 395.145 799.556 400.386 808.716 397.164C817.876 393.942 808.087 403.799 814.786 405.414C821.485 407.029 832.994 394.95 838.014 389.212C849.979 375.535 867.84 375.887 869.329 373.531C867.817 369.173 871.147 365.58 867.322 363.478C862.914 361.056 836.198 347.086 824.727 346.237C812.531 345.333 798.11 344.346 790.777 363.98Z" fill="#A3BCFF" fill-opacity="0.6"/>
<path d="M923.79 397.599C924.232 397.547 924.555 397.37 924.78 397.094C929.597 391.194 918.922 384.31 912.853 380.22C908.385 377.209 903.403 375.032 898.132 373.79L897.321 373.598C894.457 372.923 891.532 372.502 888.579 372.339L880.334 371.884C879.204 371.822 878.216 372.732 878.166 373.884C877.956 378.719 877.413 390.821 876.87 399.345C876.86 399.507 876.85 399.666 876.841 399.823C876.447 406.637 879.777 415.552 886.342 416.751C886.49 416.778 886.64 416.8 886.791 416.819C891.942 417.439 891.204 413.972 894.696 411.788C898.187 409.603 904.112 410.81 906.92 410.271C909.727 409.731 911.529 402.61 915.418 402.436C919.306 402.263 919.81 398.063 923.79 397.599Z" fill="#A3BCFF" fill-opacity="0.6"/>
<path d="M828.058 408.568C827.588 408.614 827.226 408.492 826.952 408.241C821.476 403.206 830.572 394.49 835.821 389.19C839.708 385.266 844.25 382.051 849.242 379.691L849.955 379.355C852.656 378.077 855.463 377.036 858.343 376.243L866.057 374.118C867.261 373.786 868.476 374.623 868.627 375.86C869.169 380.305 870.64 390.117 873.753 397.792C875.516 402.14 875.992 405.226 875.955 407.338C875.908 410.069 874.528 412.673 873.013 414.95C871.815 416.749 870.039 418.703 867.647 419.529C862.695 421.239 862.83 417.678 859.031 416.279C855.233 414.881 849.622 417.331 846.774 417.402C843.926 417.473 840.946 410.867 837.1 411.527C833.253 412.188 832.045 408.173 828.058 408.568Z" fill="#A3BCFF" fill-opacity="0.6"/>
<path d="M947.516 360.151C947.267 359.474 947.218 358.843 947.336 358.253C947.453 357.668 947.728 357.155 948.079 356.699C948.7 355.894 949.616 355.205 950.453 354.575C950.544 354.507 950.633 354.439 950.721 354.373C951.669 353.655 952.455 353.01 952.836 352.287C953.018 351.943 953.102 351.589 953.064 351.2C953.026 350.804 952.859 350.336 952.477 349.774C947.329 342.194 941.348 339.322 935.214 338.697C929.035 338.068 922.67 339.712 916.743 341.265C914.021 341.978 910.484 343.567 906.626 345.616C902.775 347.661 898.633 350.148 894.711 352.639C886.866 357.621 879.918 362.603 877.964 364.054C877.183 364.633 876.877 365.16 876.779 365.654C876.677 366.172 876.783 366.737 877.001 367.436C877.07 367.659 877.152 367.893 877.237 368.14C877.639 369.301 878.131 370.723 877.912 372.381C877.948 372.395 877.989 372.409 878.035 372.423C878.23 372.482 878.488 372.531 878.815 372.571C879.47 372.65 880.337 372.684 881.396 372.706C881.822 372.715 882.277 372.721 882.758 372.728C884.656 372.756 886.965 372.79 889.513 372.978C895.904 373.449 903.878 374.889 910.99 379.67C913.922 381.641 918.692 384.647 923.504 386.827C925.911 387.918 928.312 388.794 930.487 389.235C932.672 389.678 934.569 389.669 936.011 389.061C936.744 388.752 937.173 388.407 937.418 388.07C937.659 387.739 937.751 387.38 937.743 386.984C937.736 386.577 937.623 386.134 937.448 385.661C937.306 385.276 937.133 384.897 936.959 384.514C936.918 384.424 936.877 384.334 936.836 384.243C936.63 383.786 936.425 383.307 936.329 382.866C936.234 382.426 936.225 381.918 936.543 381.491C936.853 381.074 937.383 380.86 938.049 380.765C938.725 380.668 939.639 380.681 940.846 380.809C942.033 380.935 942.908 380.999 943.549 381.002C944.207 381.005 944.548 380.943 944.715 380.866C944.786 380.834 944.8 380.81 944.801 380.809L944.801 380.809C944.803 380.806 944.816 380.787 944.819 380.724C944.826 380.565 944.77 380.321 944.647 379.905C944.629 379.842 944.609 379.776 944.588 379.708C944.356 378.933 944.03 377.847 944.065 376.489C944.104 374.999 944.573 373.217 945.981 371.126C947.337 369.115 948.186 367.662 948.685 366.555C949.182 365.449 949.311 364.725 949.268 364.159C949.224 363.594 949.005 363.125 948.666 362.51C948.62 362.425 948.571 362.338 948.521 362.248C948.21 361.692 947.837 361.026 947.516 360.151Z" fill="#127AFA" fill-opacity="0.8" stroke="black"/>
<path d="M797.529 375.085C797.644 374.373 797.571 373.744 797.343 373.188C797.117 372.636 796.75 372.184 796.317 371.804C795.554 371.132 794.524 370.63 793.582 370.171C793.48 370.121 793.38 370.072 793.28 370.024C792.213 369.5 791.319 369.016 790.807 368.38C790.563 368.076 790.413 367.745 790.376 367.355C790.338 366.96 790.413 366.468 790.68 365.844C794.289 357.421 799.614 353.463 805.517 351.68C811.462 349.885 818.023 350.286 824.138 350.68C826.946 350.862 830.721 351.747 834.899 353.023C839.069 354.297 843.609 355.949 847.934 357.647C856.585 361.043 864.354 364.609 866.55 365.661C867.426 366.08 867.827 366.54 868.017 367.006C868.217 367.495 868.22 368.07 868.139 368.798C868.114 369.03 868.079 369.275 868.042 369.533C867.869 370.75 867.657 372.24 868.187 373.826C868.155 373.846 868.117 373.868 868.074 373.89C867.894 373.985 867.65 374.083 867.337 374.184C866.709 374.387 865.865 374.585 864.829 374.809C864.413 374.898 863.967 374.992 863.496 375.09C861.638 375.48 859.378 375.953 856.912 376.623C850.729 378.303 843.176 381.237 837.105 387.285C834.602 389.779 830.493 393.639 826.184 396.696C824.029 398.226 821.839 399.543 819.788 400.39C817.727 401.241 815.863 401.594 814.332 401.273C813.554 401.109 813.067 400.852 812.761 400.568C812.462 400.289 812.304 399.954 812.235 399.564C812.166 399.163 812.192 398.707 812.274 398.209C812.34 397.804 812.437 397.399 812.535 396.99C812.558 396.894 812.581 396.797 812.604 396.7C812.719 396.212 812.829 395.703 812.839 395.252C812.849 394.801 812.761 394.301 812.367 393.942C811.983 393.593 811.423 393.483 810.751 393.517C810.068 393.551 809.173 393.737 808.013 394.093C806.872 394.443 806.025 394.673 805.397 394.798C804.751 394.927 804.404 394.93 804.226 394.887C804.15 394.869 804.131 394.848 804.13 394.847L804.13 394.847C804.128 394.845 804.112 394.828 804.097 394.767C804.059 394.612 804.068 394.363 804.109 393.931C804.115 393.865 804.122 393.796 804.129 393.725C804.21 392.921 804.323 391.792 804.03 390.466C803.708 389.011 802.907 387.35 801.126 385.567C799.413 383.85 798.301 382.586 797.602 381.594C796.903 380.604 796.638 379.917 796.573 379.354C796.507 378.79 796.633 378.289 796.849 377.62C796.878 377.528 796.909 377.433 796.942 377.336C797.141 376.73 797.38 376.005 797.529 375.085Z" fill="#127AFA" fill-opacity="0.8" stroke="black"/>
<path d="M923.927 395.226C923.997 395.219 924.064 395.209 924.128 395.196C931.312 393.759 918.937 383.301 912.658 379.527C908.407 376.971 903.758 375.145 898.904 374.125L897.337 373.795C894.553 373.21 891.727 372.845 888.885 372.705L880.396 372.288C879.29 372.233 878.351 373.083 878.297 374.189C878.084 378.574 877.545 389.248 877.007 396.784C876.553 403.135 880.185 411.274 886.468 412.306C886.619 412.331 886.773 412.352 886.927 412.368C892.079 412.922 891.341 409.83 894.833 407.881C898.324 405.933 904.249 407.009 907.056 406.528C909.864 406.047 911.666 399.696 915.554 399.541C919.442 399.386 919.947 395.641 923.927 395.226Z" fill="#3C8FF6" fill-opacity="0.8" stroke="black" stroke-linecap="square"/>
<path d="M827.502 405.009C827.432 405.015 827.364 405.018 827.299 405.018C819.973 404.976 830.128 392.352 835.572 387.45C839.259 384.131 843.474 381.452 848.045 379.525L849.52 378.903C852.142 377.798 854.847 376.902 857.609 376.223L865.569 374.267C866.752 373.977 867.926 374.796 868.094 376.002C868.654 380.04 870.126 388.647 873.197 395.398C874.782 398.885 875.327 401.461 875.394 403.315C875.497 406.17 873.914 408.9 872.127 411.128C870.942 412.605 869.272 414.114 867.091 414.786C862.139 416.311 862.274 413.135 858.475 411.887C854.676 410.64 849.065 412.826 846.218 412.889C843.37 412.952 840.39 407.06 836.544 407.649C832.697 408.238 831.488 404.657 827.502 405.009Z" fill="#3C8FF6" fill-opacity="0.8" stroke="black" stroke-linecap="square"/>
<path d="M868.995 380.244L868.504 380.338L868.995 380.244C868.035 375.23 868.046 370.669 868.431 366.432C868.535 365.276 869.045 363.649 869.753 362.278C870.105 361.595 870.495 360.997 870.891 360.562C871.297 360.114 871.654 359.898 871.931 359.856C872.199 359.816 872.581 359.916 873.067 360.241C873.542 360.558 874.053 361.05 874.552 361.668C875.55 362.904 876.438 364.569 876.853 366.13L876.868 366.187C877.677 369.233 878.638 372.853 878.101 379.887C877.914 382.334 877.853 384.504 877.813 386.428C877.807 386.726 877.801 387.018 877.795 387.304C877.765 388.868 877.738 390.25 877.652 391.488C877.457 394.283 876.964 396.22 875.553 397.687C874.765 397.37 874.029 396.635 873.346 395.527C872.592 394.305 871.949 392.702 871.394 390.924C870.421 387.8 869.746 384.223 869.211 381.384C869.136 380.988 869.064 380.607 868.995 380.244Z" fill="#C24500" fill-opacity="0.6" stroke="black"/>
<path d="M874.353 362.172C874.417 362.292 874.568 362.335 874.69 362.266C874.811 362.198 874.858 362.045 874.794 361.924L874.353 362.172ZM873.043 346.797C873.119 347.529 873.772 348.041 874.502 347.941C875.231 347.84 875.761 347.165 875.685 346.432C875.609 345.7 874.956 345.188 874.227 345.288C873.497 345.389 872.967 346.064 873.043 346.797ZM874.801 350.662C874.897 350.559 874.894 350.4 874.796 350.307C874.697 350.214 874.539 350.221 874.443 350.324L874.801 350.662ZM874.335 357.551C874.431 357.449 874.428 357.29 874.33 357.197C874.231 357.103 874.073 357.111 873.978 357.213L874.335 357.551ZM874.794 361.924L873.94 360.311L873.499 360.559L874.353 362.172L874.794 361.924ZM874.921 354.432L874.349 353.066L873.889 353.274L874.461 354.64L874.921 354.432ZM875.103 347.247L874.571 346.468L874.158 346.762L874.69 347.541L875.103 347.247ZM874.801 350.662C875.688 349.712 875.814 348.287 875.103 347.247L874.69 347.541C875.269 348.389 875.166 349.55 874.443 350.324L874.801 350.662ZM874.349 353.066C874.012 352.262 874.189 351.316 874.801 350.662L874.443 350.324C873.694 351.126 873.475 352.287 873.889 353.274L874.349 353.066ZM874.335 357.551C875.127 356.703 875.358 355.476 874.921 354.432L874.461 354.64C874.822 355.502 874.632 356.513 873.978 357.213L874.335 357.551ZM873.94 360.311C873.468 359.421 873.628 358.308 874.335 357.551L873.978 357.213C873.12 358.131 872.927 359.48 873.499 360.559L873.94 360.311Z" fill="black"/>
<path d="M870.337 362.083C870.308 362.22 870.175 362.313 870.042 362.289C869.908 362.265 869.824 362.135 869.853 361.998L870.337 362.083ZM867.596 346.887C867.713 347.614 867.225 348.328 866.505 348.481C865.785 348.635 865.105 348.17 864.988 347.443C864.87 346.716 865.359 346.002 866.079 345.849C866.799 345.695 867.478 346.16 867.596 346.887ZM866.926 351.196C866.808 351.13 866.769 350.977 866.839 350.854C866.909 350.731 867.061 350.685 867.179 350.75L866.926 351.196ZM867.052 350.973L867.179 350.75L867.052 350.973ZM869.155 357.645C869.038 357.579 868.999 357.426 869.069 357.303C869.139 357.18 869.291 357.134 869.409 357.199L869.155 357.645ZM870.489 360.197L870.731 360.24L870.489 360.197ZM869.282 357.422L869.409 357.199L869.282 357.422ZM869.853 361.998L870.247 360.155L870.731 360.24L870.337 362.083L869.853 361.998ZM867.79 354.858L867.98 353.346L868.471 353.387L868.281 354.899L867.79 354.858ZM865.753 348.028L866.057 347.096L866.527 347.234L866.222 348.167L865.753 348.028ZM866.926 351.196C865.837 350.589 865.348 349.269 865.753 348.028L866.222 348.167C865.892 349.179 866.291 350.255 867.179 350.75L866.926 351.196ZM867.98 353.346C868.091 352.459 867.677 351.614 866.926 351.196L867.179 350.75C868.1 351.264 868.608 352.3 868.471 353.387L867.98 353.346ZM869.155 357.645C868.182 357.102 867.646 356.007 867.79 354.858L868.281 354.899C868.162 355.848 868.605 356.752 869.409 357.199L869.155 357.645ZM870.247 360.155C870.464 359.14 870.024 358.129 869.155 357.645L869.409 357.199C870.461 357.786 870.994 359.011 870.731 360.24L870.247 360.155Z" fill="black"/>
<path d="M579.578 336.983C582.25 337.441 583.409 337.146 585.426 337.156C588.551 336.572 585.426 337.156 590.335 336.101C595.334 333.633 594.186 335.3 595.685 334.69C598.213 333.662 611.631 328.216 602.641 325.801C600.679 325.274 601.641 327.124 598.756 326.092C595.704 325 598.451 323.825 595.29 322.491C592.632 321.371 591.312 316.089 587.885 319.58C585.776 321.727 586.928 322.347 585.265 324.797C584.257 326.282 584.144 326.368 581.618 329.371C579.403 332.003 574.906 332.505 574.129 333.826C573.353 335.147 577.098 336.557 579.578 336.983Z" fill="#8EF8FF" fill-opacity="0.5"/>
<path d="M571.318 329.241C573.144 329.924 572.507 334.889 574.486 333.929C576.394 333.003 579.058 331.863 581.2 330.226C582.327 329.364 585.569 325.248 586.777 322.57C587.941 319.988 588.008 317.417 588.422 316.311C589.247 314.105 585.356 312.938 585.506 310.861C585.668 308.612 586.076 308.103 586.342 306.114C586.608 304.125 585.451 302.964 583.326 302.169C580.703 301.188 579.28 303.197 573.062 296.699C570.264 297.944 565.663 308.559 564.243 312.354C562.382 317.331 565.708 320.938 566.423 324.677C566.9 327.17 569.433 328.536 571.318 329.241Z" fill="#8EF8FF" fill-opacity="0.5"/>
<path d="M571.855 337.357C573.23 338.748 574.239 339.391 575.106 339.71C575.867 339.991 576.546 340.036 577.364 340.079C577.366 340.038 577.366 339.992 577.362 339.94C577.347 339.738 577.28 339.482 577.156 339.171C576.906 338.548 576.466 337.805 575.944 337.007C575.647 336.554 575.344 336.11 575.041 335.668C574.801 335.318 574.562 334.969 574.328 334.617C573.821 333.854 573.359 333.108 573.112 332.489C572.591 331.18 572.2 330.51 571.776 330.044C571.385 329.615 570.95 329.336 570.256 328.892C570.187 328.848 570.114 328.801 570.039 328.753L570.309 328.332L570.039 328.753C569.965 328.705 569.886 328.667 569.804 328.638C569.282 328.453 568.696 328.601 568.208 329.004C567.717 329.408 567.393 330.017 567.386 330.622C567.385 330.76 567.399 330.89 567.432 331.013C567.629 331.747 568.207 332.806 569.024 333.971C569.832 335.122 570.842 336.331 571.855 337.357Z" fill="#C24500" fill-opacity="0.5" stroke="black"/>
<path d="M579.863 340.093C581.433 341.079 582.432 341.438 583.551 341.841C584.023 342.011 584.518 342.189 585.086 342.425C586.579 342.737 586.586 342.738 586.777 342.764L586.788 342.765C587.027 342.797 587.488 342.859 589.906 343.297C592.633 343.115 593.715 343.28 594.318 343.573C594.476 343.649 594.592 343.73 594.684 343.8C594.721 343.828 594.748 343.849 594.771 343.866C594.812 343.899 594.838 343.918 594.873 343.941C594.929 343.976 595.027 344.032 595.365 344.034L595.371 344.034C596.756 344.04 600.99 344.059 603.957 343.388C604.696 343.221 605.332 343.016 605.816 342.771C606.309 342.521 606.582 342.26 606.694 342.016C606.791 341.804 606.807 341.515 606.558 341.076C606.3 340.622 605.778 340.052 604.877 339.363C604.523 339.092 604.328 339.048 604.219 339.044C604.115 339.039 604.048 339.058 603.917 339.094C603.859 339.11 603.788 339.13 603.696 339.152C603.414 339.222 603.071 339.263 602.625 339.109C602.206 338.964 601.733 338.659 601.143 338.125C600.51 337.555 600.166 337.067 600.034 336.587C599.904 336.117 600.001 335.723 600.071 335.441C600.074 335.431 600.076 335.42 600.079 335.409C600.151 335.119 600.191 334.926 600.127 334.677C600.061 334.418 599.862 334.034 599.289 333.456C598.701 332.863 598.34 332.054 598.055 331.282C597.946 330.987 597.85 330.702 597.757 330.427C597.592 329.942 597.439 329.489 597.246 329.065C596.952 328.417 596.631 328 596.21 327.809C595.801 327.624 595.166 327.597 594.104 328.051C593.444 328.333 593.02 328.595 592.715 328.845C592.412 329.093 592.207 329.344 591.993 329.633C591.95 329.691 591.907 329.751 591.863 329.811C591.45 330.379 590.963 331.048 589.773 331.834C588.463 332.699 588.158 332.857 585.896 334.033C585.525 334.225 585.102 334.445 584.614 334.699C582.969 335.557 581.005 335.636 579.387 335.638C579.157 335.639 578.935 335.637 578.722 335.636C578.164 335.633 577.665 335.63 577.225 335.657C576.596 335.695 576.237 335.789 576.064 335.921C576.005 335.965 575.987 336.003 575.979 336.044C575.969 336.098 575.97 336.195 576.021 336.347C576.125 336.659 576.39 337.069 576.799 337.535C577.605 338.457 578.829 339.444 579.863 340.093Z" fill="#00A9C0" fill-opacity="0.5" stroke="black"/>
<path d="M572.363 330.298C572.79 330.695 573.116 331.257 573.393 331.815C573.534 332.099 573.669 332.396 573.801 332.686L573.805 332.694C573.936 332.984 574.064 333.266 574.197 333.535C574.47 334.087 574.742 334.541 575.049 334.847C575.342 335.138 575.646 335.278 576.021 335.255C576.372 335.233 576.741 335.214 577.124 335.195C579.087 335.094 581.414 334.974 583.54 334.405C583.831 334.327 584.336 334.117 584.987 333.794C585.628 333.476 586.382 333.064 587.163 332.599C588.732 331.665 590.371 330.54 591.4 329.57C592.389 328.637 593.14 327.6 593.749 326.674C593.929 326.401 594.085 326.156 594.234 325.922C594.348 325.743 594.458 325.571 594.57 325.399C594.813 325.027 595.049 324.685 595.282 324.434C595.566 324.129 595.643 323.798 595.6 323.401C595.554 322.974 595.37 322.498 595.133 321.949C595.099 321.872 595.065 321.794 595.029 321.714C594.827 321.252 594.605 320.747 594.476 320.256C594.321 319.669 594.272 319.02 594.582 318.401C595.1 317.361 595.51 316.755 595.915 316.192C595.973 316.112 596.03 316.033 596.086 315.955C596.425 315.488 596.761 315.025 597.178 314.304C597.618 313.541 597.683 312.87 597.489 312.228C597.287 311.56 596.787 310.868 595.985 310.123C595.809 309.96 595.642 309.809 595.482 309.665C594.734 308.99 594.137 308.451 593.451 307.352C592.659 306.082 591.734 304.054 590.186 300.109C589.948 300.162 589.662 300.26 589.329 300.411C588.827 300.638 588.252 300.966 587.623 301.377C586.367 302.197 584.935 303.321 583.502 304.544C580.636 306.988 577.807 309.793 576.44 311.264C572.913 315.059 572.131 318.122 571.376 321.815C571.133 323 571.048 324.844 571.208 326.561C571.288 327.418 571.427 328.225 571.629 328.892C571.836 329.572 572.091 330.045 572.363 330.298Z" fill="#00A9C0" fill-opacity="0.5" stroke="black"/>
<path d="M568.2 328.726C568.198 328.862 568.084 328.969 567.944 328.964C567.805 328.959 567.693 328.844 567.694 328.707L568.2 328.726ZM566.384 322.615C566.652 323.301 566.307 324.056 565.612 324.3C564.918 324.545 564.137 324.188 563.869 323.502C563.601 322.816 563.947 322.062 564.641 321.817C565.336 321.572 566.116 321.93 566.384 322.615ZM565.679 324.751C565.547 324.704 565.477 324.561 565.521 324.433C565.566 324.305 565.71 324.24 565.842 324.287L565.679 324.751ZM566.447 325.399L566.699 325.386L566.447 325.399ZM567.142 327.172C567.01 327.124 566.939 326.982 566.984 326.854C567.029 326.726 567.173 326.66 567.305 326.708L567.142 327.172ZM567.694 328.707L567.703 327.96L568.208 327.978L568.2 328.726L567.694 328.707ZM566.243 326.017L566.195 325.412L566.699 325.386L566.747 325.991L566.243 326.017ZM564.828 323.406L564.876 323.023L565.378 323.095L565.33 323.478L564.828 323.406ZM565.679 324.751C565.111 324.548 564.756 323.987 564.828 323.406L565.33 323.478C565.287 323.827 565.5 324.165 565.842 324.287L565.679 324.751ZM566.195 325.412C566.171 325.114 565.968 324.854 565.679 324.751L565.842 324.287C566.322 324.459 566.659 324.891 566.699 325.386L566.195 325.412ZM567.142 327.172C566.638 326.991 566.284 326.537 566.243 326.017L566.747 325.991C566.772 326.314 566.992 326.596 567.305 326.708L567.142 327.172ZM567.703 327.96C567.707 327.611 567.481 327.293 567.142 327.172L567.305 326.708C567.85 326.903 568.215 327.415 568.208 327.978L567.703 327.96Z" fill="black"/>
<path d="M569.852 328.813C569.952 328.911 570.113 328.915 570.211 328.821C570.31 328.727 570.308 328.572 570.207 328.474L569.852 328.813ZM566.71 323.2C567.015 323.87 567.817 324.193 568.502 323.922C569.186 323.651 569.494 322.888 569.189 322.218C568.884 321.547 568.082 321.224 567.397 321.495C566.712 321.766 566.405 322.529 566.71 323.2ZM568.783 324.295C568.845 324.175 568.792 324.026 568.666 323.963C568.54 323.899 568.387 323.945 568.326 324.064L568.783 324.295ZM569.487 326.999C569.548 326.88 569.496 326.731 569.37 326.668C569.243 326.604 569.091 326.65 569.029 326.769L569.487 326.999ZM569.477 328.105L569.299 328.274L569.477 328.105ZM569.258 326.884L569.029 326.769L569.258 326.884ZM570.207 328.474L569.654 327.935L569.299 328.274L569.852 328.813L570.207 328.474ZM569.299 325.581L568.891 325.109L568.505 325.415L568.913 325.887L569.299 325.581ZM568.422 322.77L568.106 322.521L567.792 322.896L568.108 323.145L568.422 322.77ZM568.783 324.295C569.048 323.78 568.897 323.145 568.422 322.77L568.108 323.145C568.394 323.371 568.485 323.754 568.326 324.064L568.783 324.295ZM568.891 325.109C568.691 324.877 568.648 324.557 568.783 324.295L568.326 324.064C568.102 324.499 568.172 325.03 568.505 325.415L568.891 325.109ZM569.487 326.999C569.722 326.543 569.648 325.985 569.299 325.581L568.913 325.887C569.13 326.139 569.175 326.485 569.029 326.769L569.487 326.999ZM569.654 327.935C569.396 327.684 569.329 327.307 569.487 326.999L569.029 326.769C568.775 327.263 568.884 327.87 569.299 328.274L569.654 327.935Z" fill="black"/>
<circle cx="464.61" cy="367.988" r="5.03515" fill="#FFD4A0"/>
<path d="M483.096 371.418L483.083 371.438L483.075 371.46C482.924 371.853 482.838 372.364 482.749 372.889C482.73 373.003 482.711 373.117 482.691 373.231C482.575 373.891 482.429 374.572 482.137 375.178C481.855 375.764 481.501 376.103 481.11 376.477L481.093 376.494C480.692 376.878 480.26 377.298 479.906 378.034C479.485 378.907 479.107 379.594 478.725 380.099C478.342 380.604 477.969 380.908 477.565 381.044C477.163 381.179 476.694 381.161 476.091 380.946C475.486 380.73 474.763 380.321 473.871 379.696C472.094 378.451 470.152 376.58 468.928 374.464C467.706 372.349 467.22 370.028 468.275 367.84C469.333 365.645 471.094 364.73 473.256 364.54C475.438 364.348 478.014 364.898 480.645 365.643C482.82 366.258 483.822 367.009 484.117 367.885C484.415 368.77 484.038 369.905 483.096 371.418Z" fill="url(#paint5_linear_305_4987)" stroke="black" stroke-width="0.5"/>
<path d="M471.836 351.5L471.853 351.516L471.874 351.528C472.234 351.744 472.722 351.918 473.225 352.096C473.333 352.135 473.443 352.174 473.551 352.213C474.181 352.442 474.826 352.705 475.372 353.097C475.9 353.477 476.172 353.884 476.473 354.334L476.487 354.354C476.795 354.816 477.134 355.314 477.796 355.791C478.583 356.357 479.194 356.849 479.625 357.314C480.056 357.778 480.29 358.198 480.354 358.62C480.417 359.039 480.317 359.498 480.001 360.054C479.683 360.613 479.154 361.254 478.384 362.024C476.85 363.557 474.668 365.144 472.372 365.981C470.077 366.817 467.707 366.891 465.736 365.473C463.758 364.049 463.163 362.156 463.352 359.994C463.542 357.811 464.532 355.371 465.723 352.909C466.707 350.874 467.621 350.018 468.535 349.88C469.457 349.74 470.51 350.308 471.836 351.5Z" fill="url(#paint6_linear_305_4987)" stroke="black" stroke-width="0.5"/>
<path d="M450.213 357.087L450.232 357.073L450.248 357.055C450.534 356.747 450.804 356.305 451.082 355.85C451.142 355.751 451.202 355.652 451.263 355.554C451.617 354.985 452.006 354.407 452.502 353.953C452.982 353.515 453.436 353.332 453.939 353.129L453.961 353.12C454.476 352.913 455.033 352.684 455.635 352.133C456.351 351.479 456.958 350.982 457.501 350.656C458.044 350.33 458.503 350.186 458.929 350.211C459.352 350.235 459.781 350.426 460.26 350.85C460.742 351.276 461.261 351.925 461.856 352.837C463.042 354.653 464.148 357.113 464.496 359.532C464.844 361.95 464.43 364.285 462.638 365.923C460.839 367.567 458.863 367.761 456.786 367.133C454.689 366.499 452.503 365.029 450.338 363.359C448.548 361.979 447.898 360.908 447.95 359.985C448.003 359.054 448.775 358.14 450.213 357.087Z" fill="url(#paint7_linear_305_4987)" stroke="black" stroke-width="0.5"/>
<path d="M449.775 379.157L449.765 379.135L449.752 379.115C449.514 378.768 449.143 378.407 448.76 378.035C448.677 377.955 448.594 377.874 448.512 377.793C448.035 377.323 447.557 376.816 447.225 376.231C446.903 375.666 446.825 375.183 446.738 374.648L446.735 374.624C446.646 374.076 446.546 373.482 446.142 372.773C445.662 371.931 445.312 371.229 445.113 370.627C444.915 370.026 444.877 369.546 444.995 369.136C445.112 368.729 445.393 368.353 445.912 367.979C446.434 367.603 447.182 367.241 448.203 366.862C450.236 366.107 452.88 365.571 455.316 365.767C457.751 365.962 459.937 366.881 461.139 368.992C462.344 371.11 462.097 373.079 461.025 374.966C459.943 376.871 458.027 378.678 455.919 380.421C454.178 381.861 452.99 382.258 452.102 382.004C451.204 381.746 450.484 380.791 449.775 379.157Z" fill="url(#paint8_linear_305_4987)" stroke="black" stroke-width="0.5"/>
<path d="M467.847 385.65L467.825 385.647L467.803 385.648C467.385 385.66 466.884 385.769 466.365 385.882C466.253 385.906 466.14 385.931 466.027 385.955C465.375 386.092 464.69 386.212 464.015 386.18C463.363 386.149 462.91 385.967 462.412 385.768L462.389 385.758C461.878 385.554 461.324 385.336 460.513 385.298C459.544 385.251 458.762 385.175 458.145 385.028C457.528 384.882 457.101 384.671 456.818 384.375C456.538 384.083 456.372 383.681 456.333 383.097C456.294 382.506 456.385 381.746 456.607 380.761C457.051 378.8 458.005 376.473 459.465 374.673C460.924 372.875 462.866 371.623 465.301 371.74C467.744 371.857 469.278 373.038 470.3 374.811C471.332 376.602 471.84 378.996 472.191 381.51C472.481 383.585 472.185 384.696 471.504 385.255C471.16 385.538 470.69 385.705 470.076 385.766C469.46 385.827 468.718 385.78 467.847 385.65Z" fill="url(#paint9_linear_305_4987)" stroke="black" stroke-width="0.5"/>
<defs>
<filter id="filter0_i_305_4987" x="441.731" y="316.3" width="139.88" height="220.84" filterUnits="userSpaceOnUse" color-interpolation-filters="sRGB">
<feFlood flood-opacity="0" result="BackgroundImageFix"/>
<feBlend mode="normal" in="SourceGraphic" in2="BackgroundImageFix" result="shape"/>
<feColorMatrix in="SourceAlpha" type="matrix" values="0 0 0 0 0 0 0 0 0 0 0 0 0 0 0 0 0 0 127 0" result="hardAlpha"/>
<feOffset dy="4"/>
<feGaussianBlur stdDeviation="2"/>
<feComposite in2="hardAlpha" operator="arithmetic" k2="-1" k3="1"/>
<feColorMatrix type="matrix" values="0 0 0 0 0 0 0 0 0 0 0 0 0 0 0 0 0 0 0.1 0"/>
<feBlend mode="normal" in2="shape" result="effect1_innerShadow_305_4987"/>
</filter>
<linearGradient id="paint0_linear_305_4987" x1="467.639" y1="368.5" x2="483.273" y2="375.716" gradientUnits="userSpaceOnUse">
<stop offset="0.3125" stop-color="white"/>
<stop offset="0.734375" stop-color="#FFEDFD"/>
</linearGradient>
<linearGradient id="paint1_linear_305_4987" x1="465.7" y1="366.015" x2="475.566" y2="352.074" gradientUnits="userSpaceOnUse">
<stop offset="0.3125" stop-color="white"/>
<stop offset="0.734375" stop-color="#FFEDFD"/>
</linearGradient>
<linearGradient id="paint2_linear_305_4987" x1="462.692" y1="365.549" x2="451.254" y2="352.823" gradientUnits="userSpaceOnUse">
<stop offset="0.3125" stop-color="white"/>
<stop offset="0.734375" stop-color="#FFEDFD"/>
</linearGradient>
<linearGradient id="paint3_linear_305_4987" x1="460.872" y1="368.035" x2="445.989" y2="376.651" gradientUnits="userSpaceOnUse">
<stop offset="0.3125" stop-color="white"/>
<stop offset="0.734375" stop-color="#FFEDFD"/>
</linearGradient>
<linearGradient id="paint4_linear_305_4987" x1="464.915" y1="371.623" x2="464.115" y2="388.587" gradientUnits="userSpaceOnUse">
<stop offset="0.3125" stop-color="white"/>
<stop offset="0.734375" stop-color="#FFEDFD"/>
</linearGradient>
<linearGradient id="paint5_linear_305_4987" x1="467.853" y1="368.14" x2="482.423" y2="375.16" gradientUnits="userSpaceOnUse">
<stop offset="0.364583" stop-color="#FFAED5"/>
<stop offset="0.833333" stop-color="#FFC6C6" stop-opacity="0.6"/>
</linearGradient>
<linearGradient id="paint6_linear_305_4987" x1="465.957" y1="365.94" x2="475.404" y2="352.813" gradientUnits="userSpaceOnUse">
<stop offset="0.364583" stop-color="#FFAED5"/>
<stop offset="0.833333" stop-color="#FFC6C6" stop-opacity="0.6"/>
</linearGradient>
<linearGradient id="paint7_linear_305_4987" x1="463.14" y1="365.803" x2="452.23" y2="353.863" gradientUnits="userSpaceOnUse">
<stop offset="0.364583" stop-color="#FFAED5"/>
<stop offset="0.833333" stop-color="#FFC6C6" stop-opacity="0.6"/>
</linearGradient>
<linearGradient id="paint8_linear_305_4987" x1="461.132" y1="368.475" x2="447.077" y2="376.477" gradientUnits="userSpaceOnUse">
<stop offset="0.364583" stop-color="#FFAED5"/>
<stop offset="0.833333" stop-color="#FFC6C6" stop-opacity="0.6"/>
</linearGradient>
<linearGradient id="paint9_linear_305_4987" x1="464.861" y1="371.468" x2="464.143" y2="386.436" gradientUnits="userSpaceOnUse">
<stop offset="0.364583" stop-color="#FFAED5"/>
<stop offset="0.833333" stop-color="#FFC6C6" stop-opacity="0.6"/>
</linearGradient>
</defs>
</svg>
